<svg xmlns="http://www.w3.org/2000/svg" xmlns:xlink="http://www.w3.org/1999/xlink" viewBox="0 0 349.47 70"><defs><style>.cls-1{fill:url(#linear-gradient);}.cls-2{fill:url(#linear-gradient-2);}.cls-3{fill:url(#linear-gradient-3);}.cls-4{fill:url(#linear-gradient-4);}.cls-5{fill:url(#linear-gradient-5);}.cls-6{fill:url(#linear-gradient-6);}.cls-7{fill:url(#linear-gradient-7);}.cls-8{fill:url(#linear-gradient-8);}.cls-9{fill:url(#linear-gradient-9);}.cls-10{fill:#cc172d;}.cls-11{fill:#fff;}</style><linearGradient id="linear-gradient" x1="-528.22" y1="-632.61" x2="-547.49" y2="-651.88" gradientTransform="translate(-596.43 552.65) rotate(90)" gradientUnits="userSpaceOnUse"><stop offset="0" stop-color="#fff"/><stop offset="1" stop-color="#ccc"/></linearGradient><linearGradient id="linear-gradient-2" x1="-525.56" y1="-632.61" x2="-544.83" y2="-651.88" gradientTransform="translate(-594.55 551.87) rotate(90)" xlink:href="#linear-gradient"/><linearGradient id="linear-gradient-3" x1="-522.9" y1="-632.61" x2="-542.17" y2="-651.88" gradientTransform="translate(-592.67 551.09) rotate(90)" xlink:href="#linear-gradient"/><linearGradient id="linear-gradient-4" x1="-520.24" y1="-632.61" x2="-539.51" y2="-651.88" gradientTransform="translate(-590.79 550.31) rotate(90)" xlink:href="#linear-gradient"/><linearGradient id="linear-gradient-5" x1="-517.58" y1="-632.61" x2="-536.86" y2="-651.88" gradientTransform="translate(-588.91 549.53) rotate(90)" xlink:href="#linear-gradient"/><linearGradient id="linear-gradient-6" x1="-514.93" y1="-632.61" x2="-534.2" y2="-651.88" gradientTransform="translate(-587.03 548.75) rotate(90)" xlink:href="#linear-gradient"/><linearGradient id="linear-gradient-7" x1="26.73" y1="53.27" x2="26.73" y2="0" gradientTransform="matrix(1, 0, 0, 1, 0, 0)" xlink:href="#linear-gradient"/><linearGradient id="linear-gradient-8" x1="43.17" y1="70" x2="43.17" y2="16.53" gradientTransform="matrix(1, 0, 0, 1, 0, 0)" xlink:href="#linear-gradient"/><linearGradient id="linear-gradient-9" x1="-520" y1="-590.68" x2="-542.63" y2="-613.31" gradientTransform="translate(-28 849.25) rotate(45)" gradientUnits="userSpaceOnUse"><stop offset="0" stop-color="#e70d15"/><stop offset="1" stop-color="#cc172d"/></linearGradient></defs><g id="Layer_2" data-name="Layer 2"><g id="Layer_1-2" data-name="Layer 1"><rect class="cls-1" x="27.2" y="14.13" width="37.22" height="1.33" transform="translate(2.96 36.72) rotate(-45)"/><rect class="cls-2" x="29.08" y="16.01" width="37.22" height="1.33" transform="translate(2.18 38.6) rotate(-45)"/><rect class="cls-3" x="30.96" y="17.89" width="37.22" height="1.33" transform="translate(1.4 40.48) rotate(-45)"/><rect class="cls-4" x="32.84" y="19.77" width="37.22" height="1.33" transform="translate(0.62 42.36) rotate(-45)"/><rect class="cls-5" x="34.72" y="21.65" width="37.22" height="1.33" transform="translate(-0.16 44.24) rotate(-45)"/><rect class="cls-6" x="36.6" y="23.53" width="37.22" height="1.33" transform="translate(-0.94 46.12) rotate(-45)"/><path class="cls-7" d="M53.47,5.26,46.3,12.42a25.28,25.28,0,0,0-29.15,4.72A25,25,0,0,0,9.92,32.2L20.59,21.53l6.89,6.89L12.13,43.77,13.38,45,5.14,53.27c-.32-.52-.63-1.05-.92-1.59a35,35,0,0,1,6-41.43A35,35,0,0,1,53.47,5.26Z"/><path class="cls-8" d="M59.75,59.75a35.05,35.05,0,0,1-41.84,5.81c-.52-.3-1.05-.61-1.57-.94l8.32-8.32,1.25,1.26L41.27,42.2l6.89,6.9L37.1,60.16A25.25,25.25,0,0,0,57.58,23.7l7.16-7.17A35,35,0,0,1,59.75,59.75Z"/><path class="cls-9" d="M23.72,55.36l-8.51,8.51c-.49-.33-1-.68-1.45-1a34.95,34.95,0,0,1-6.58-6.58l-.27-.35c-.27-.37-.53-.73-.78-1.1l8.51-8.51.94.94L30.93,31.87l6.89,6.89L22.47,54.11Z"/><path class="cls-10" d="M111.52,31.35l6.57-11.66H112l-3.21,7.48-2.72,4.18L99.34,43.3h6.07l3.37-7.79,3.38,7.79h6.07Zm-5.94-11.66h-6.1l6.2,11,2.86-4.08Z"/><path class="cls-10" d="M131.43,32.43a4,4,0,0,0-.69-2.64,2.92,2.92,0,0,0-2.31-.8,3.11,3.11,0,0,0-2.72,1.13,7.11,7.11,0,0,0-.79,3.9,6.56,6.56,0,0,0,.86,3.86,3.51,3.51,0,0,0,3,1.13,12.89,12.89,0,0,0,3.34-.5,11.72,11.72,0,0,0,3.23-1.42v4.69a12.75,12.75,0,0,1-6.81,1.85c-3,0-5.16-.78-6.63-2.36s-2.21-3.82-2.21-6.74q0-4.83,2.31-7.48a8.38,8.38,0,0,1,6.66-2.64c2.59,0,4.54.69,5.84,2.09a8.37,8.37,0,0,1,2,5.93Z"/><path class="cls-10" d="M147.86,43.63a7.75,7.75,0,0,1-6.05-2.39,9.53,9.53,0,0,1-2.18-6.65q0-4.82,2.33-7.5a8.15,8.15,0,0,1,6.51-2.68,7.79,7.79,0,0,1,6.09,2.39,9.53,9.53,0,0,1,2.17,6.65c0,3.19-.78,5.69-2.34,7.48A8.19,8.19,0,0,1,147.86,43.63ZM145.6,37.9a3.52,3.52,0,0,0,5.13,0,7.44,7.44,0,0,0,.74-3.88,7.44,7.44,0,0,0-.74-3.88,3.52,3.52,0,0,0-5.13,0,7.44,7.44,0,0,0-.74,3.88A7.44,7.44,0,0,0,145.6,37.9Z"/><path class="cls-10" d="M173.2,24.41A3.17,3.17,0,0,1,176,26a7.93,7.93,0,0,1,1,4.38v13h-4.62v-12a5.06,5.06,0,0,0-.29-2,1,1,0,0,0-1-.59,1.4,1.4,0,0,0-1.11.75q0,.27,0,.87v13h-3.64v-12c0-1.71-.31-2.57-.94-2.57s-1,.52-1.42,1.56v13h-4.62V24.74h3.81l.44,2.16c1-1.66,2.1-2.49,3.34-2.49s2.09.78,2.56,2.36A4,4,0,0,1,173.2,24.41Z"/><path class="cls-10" d="M190.91,24.41a5.83,5.83,0,0,1,5,2.49,11.72,11.72,0,0,1,1.8,7,12.44,12.44,0,0,1-1.8,7.2,5.77,5.77,0,0,1-5,2.58,5.56,5.56,0,0,1-5.06-2.83v9.44h-5.06V24.74H185l.58,3.14A5.64,5.64,0,0,1,190.91,24.41ZM189.22,39a2.83,2.83,0,0,0,2.52-1.08,7.08,7.08,0,0,0,.72-3.74,8.2,8.2,0,0,0-.72-4A2.75,2.75,0,0,0,189.22,29a3,3,0,0,0-2.61,1.1,6.87,6.87,0,0,0-.76,3.76,7.68,7.68,0,0,0,.76,4A2.9,2.9,0,0,0,189.22,39Z"/><path class="cls-11" d="M220,39.5a2.68,2.68,0,0,0,.39,1.62,2.17,2.17,0,0,0,1.17.75l-.59,1.58a4.06,4.06,0,0,1-1.85-.77A3.24,3.24,0,0,1,218,40.83a6.12,6.12,0,0,1-2.38,1.93,7.42,7.42,0,0,1-3.22.67,5.78,5.78,0,0,1-4.24-1.52,5.46,5.46,0,0,1-1.54-4.07,4.84,4.84,0,0,1,2.15-4.24A11.13,11.13,0,0,1,215,32.13h2.75V30.37a3.39,3.39,0,0,0-1.22-3,5.7,5.7,0,0,0-3.33-.85,11.7,11.7,0,0,0-2.07.21,16.29,16.29,0,0,0-2.58.7l-.62-1.76a18.16,18.16,0,0,1,3-.85,14.82,14.82,0,0,1,2.61-.24,6.7,6.7,0,0,1,4.83,1.57A5.45,5.45,0,0,1,220,30.3Zm-7.21,2.22a5.7,5.7,0,0,0,2.79-.73,6.68,6.68,0,0,0,2.19-2V33.78h-3c-2.15,0-3.66.37-4.51,1.13a3.81,3.81,0,0,0-1.28,3,3.94,3.94,0,0,0,.93,2.85A3.89,3.89,0,0,0,212.76,41.72Z"/><path class="cls-11" d="M226,43.08v-1.8h3V26.74h-3V24.92h4.6l.4,4.36a10.33,10.33,0,0,1,2.57-3.47,6.06,6.06,0,0,1,4-1.25,7,7,0,0,1,1.27.1c.37.07.77.16,1.18.26l-.6,2c-.4-.11-.76-.2-1.06-.25a6.6,6.6,0,0,0-1.05-.08,5.16,5.16,0,0,0-3.74,1.5,11.05,11.05,0,0,0-2.51,4.73v8.44h3.74v1.8Zm11.75-12.45V27.08l.14-2.16h2.17l-.24,5.71Z"/><path class="cls-11" d="M244.27,43.08v-1.8h3V26.74h-3V24.92h4.6l.4,4.36a10.2,10.2,0,0,1,2.57-3.47,6,6,0,0,1,4-1.25,7,7,0,0,1,1.27.1c.37.07.77.16,1.18.26l-.6,2c-.41-.11-.76-.2-1.07-.25a6.38,6.38,0,0,0-1-.08,5.16,5.16,0,0,0-3.74,1.5,10.94,10.94,0,0,0-2.51,4.73v8.44h3.74v1.8ZM256,30.63V27.08l.14-2.16h2.18l-.24,5.71Z"/><path class="cls-11" d="M274.66,39.5a2.69,2.69,0,0,0,.38,1.62,2.17,2.17,0,0,0,1.17.75l-.58,1.58a4.1,4.1,0,0,1-1.86-.77,3.24,3.24,0,0,1-1.14-1.85,6,6,0,0,1-2.38,1.93,7.42,7.42,0,0,1-3.22.67,5.79,5.79,0,0,1-4.24-1.52,5.46,5.46,0,0,1-1.54-4.07,4.84,4.84,0,0,1,2.15-4.24,11.14,11.14,0,0,1,6.28-1.47h2.75V30.37a3.41,3.41,0,0,0-1.22-3,5.74,5.74,0,0,0-3.33-.85,11.71,11.71,0,0,0-2.08.21,16.29,16.29,0,0,0-2.58.7l-.62-1.76a18.44,18.44,0,0,1,3-.85,14.91,14.91,0,0,1,2.61-.24A6.7,6.7,0,0,1,273,26.16a5.46,5.46,0,0,1,1.64,4.14Zm-7.22,2.22a5.67,5.67,0,0,0,2.79-.73,6.71,6.71,0,0,0,2.2-2V33.78h-3c-2.16,0-3.67.37-4.52,1.13a3.81,3.81,0,0,0-1.28,3,3.9,3.9,0,0,0,.94,2.85A3.85,3.85,0,0,0,267.44,41.72Z"/><path class="cls-11" d="M280.55,43.08V24.92h1.8l.17,2.65a7.07,7.07,0,0,1,2.83-2.2,8.1,8.1,0,0,1,3.28-.78c1.86,0,3.18.47,4,1.42a5.93,5.93,0,0,1,1.18,3.93V43.08h-2.14V32.24a20.46,20.46,0,0,0-.23-3.38,3,3,0,0,0-1-1.89,3.67,3.67,0,0,0-2.33-.6,5,5,0,0,0-2.27.53A7.18,7.18,0,0,0,284,28.2a8.21,8.21,0,0,0-1.27,1.49V43.08Z"/><path class="cls-11" d="M313.14,23.28l.79,2.35a11.32,11.32,0,0,1-2.54.41c-.88.05-1.81.07-2.8.07a5.39,5.39,0,0,1,2.3,1.88,4.8,4.8,0,0,1,.76,2.65,6.52,6.52,0,0,1-.78,3.21,5.54,5.54,0,0,1-2.24,2.21,7.35,7.35,0,0,1-3.56.79,12.4,12.4,0,0,1-1.66-.09,6.59,6.59,0,0,1-1.24-.3,2.85,2.85,0,0,0-.74.86,2.28,2.28,0,0,0-.3,1.13,1.47,1.47,0,0,0,.56,1.17,3.22,3.22,0,0,0,2,.47h3.36a7.61,7.61,0,0,1,3.17.64,5.8,5.8,0,0,1,2.27,1.73,3.92,3.92,0,0,1,.84,2.46,4.44,4.44,0,0,1-2.23,4A11.73,11.73,0,0,1,305,50.31a13.31,13.31,0,0,1-4.32-.56A4.13,4.13,0,0,1,298.32,48a5.89,5.89,0,0,1-.7-3h2a3.72,3.72,0,0,0,.44,1.89A2.75,2.75,0,0,0,301.62,48a11,11,0,0,0,3.26.37,14.49,14.49,0,0,0,3.47-.35,4.31,4.31,0,0,0,2.07-1.08,2.58,2.58,0,0,0,.69-1.84,2.29,2.29,0,0,0-1.33-2.14,6.75,6.75,0,0,0-3.2-.71h-3.36a4.42,4.42,0,0,1-3.21-1,3.16,3.16,0,0,1-1-2.34,3.08,3.08,0,0,1,.49-1.63,4.8,4.8,0,0,1,1.48-1.46,5.69,5.69,0,0,1-2.25-2,5.6,5.6,0,0,1-.74-3,5.83,5.83,0,0,1,.88-3.18,6.21,6.21,0,0,1,2.46-2.21,7.73,7.73,0,0,1,3.65-.82q2.37,0,3.78-.18A15,15,0,0,0,311.1,24Q312.08,23.69,313.14,23.28Zm-8.26,3a4.49,4.49,0,0,0-3.58,1.3,4.72,4.72,0,0,0-1.14,3.25A4.29,4.29,0,0,0,305,35.37a4.15,4.15,0,0,0,3.2-1.21,4.8,4.8,0,0,0,1.11-3.36,4.67,4.67,0,0,0-1.11-3.37A4.35,4.35,0,0,0,304.88,26.27Z"/><path class="cls-11" d="M318.56,34.87a8.52,8.52,0,0,0,.82,3.74,5.06,5.06,0,0,0,2,2.15,5.52,5.52,0,0,0,2.75.7,7.25,7.25,0,0,0,2.55-.42,11.29,11.29,0,0,0,2.34-1.26l1.13,1.61a10.07,10.07,0,0,1-2.85,1.5,9.49,9.49,0,0,1-3.09.54,7.63,7.63,0,0,1-4.3-1.18A7.55,7.55,0,0,1,317.21,39a12.06,12.06,0,0,1-.95-4.94,11.65,11.65,0,0,1,1-4.9,8,8,0,0,1,2.69-3.33,6.83,6.83,0,0,1,4-1.2,6.59,6.59,0,0,1,3.78,1.07,6.84,6.84,0,0,1,2.42,3,11.86,11.86,0,0,1,.84,4.68c0,.31,0,.59,0,.84s0,.46,0,.65ZM324,26.6a5,5,0,0,0-3.7,1.55,7.34,7.34,0,0,0-1.68,4.78h10.32a7.33,7.33,0,0,0-1.43-4.77A4.45,4.45,0,0,0,324,26.6Z"/><path class="cls-11" d="M335.41,43.08v-1.8h2.95V26.74h-2.95V24.92H340l.39,4.36A10.47,10.47,0,0,1,343,25.81a6.08,6.08,0,0,1,4-1.25,6.89,6.89,0,0,1,1.27.1c.38.07.77.16,1.19.26l-.61,2c-.4-.11-.76-.2-1.06-.25a6.51,6.51,0,0,0-1.05-.08,5.14,5.14,0,0,0-3.73,1.5,10.84,10.84,0,0,0-2.51,4.73v8.44h3.74v1.8Zm11.74-12.45V27.08l.14-2.16h2.18l-.24,5.71Z"/></g></g></svg>